<?xml version="1.0" standalone="no"?>
<!DOCTYPE svg PUBLIC "-//W3C//DTD SVG 20010904//EN"
 "http://www.w3.org/TR/2001/REC-SVG-20010904/DTD/svg10.dtd">
<svg version="1.0" xmlns="http://www.w3.org/2000/svg"
 width="636.000000pt" height="392.000000pt" viewBox="0 0 636.000000 392.000000"
 preserveAspectRatio="xMidYMid meet">

<g transform="translate(0.000000,392.000000) scale(0.100000,-0.100000)"
fill="#000000" stroke="none">
<path d="M107 3813 c-4 -3 -7 -795 -7 -1759 0 -1391 3 -1754 13 -1761 6 -4
1345 -8 2975 -8 2651 -1 2964 1 2976 15 10 12 12 335 7 1765 l-6 1750 -2976 3
c-1637 1 -2979 -1 -2982 -5z m198 -78 c0 -22 -31 -33 -47 -17 -17 17 -1 44 24
40 15 -2 23 -10 23 -23z m85 10 c13 -16 6 -35 -15 -35 -18 0 -28 17 -21 35 7
19 20 19 36 0z m480 -15 c0 -28 -3 -30 -35 -30 -32 0 -35 2 -35 30 0 28 3 30
35 30 32 0 35 -2 35 -30z m3550 19 c0 -5 -4 -8 -9 -4 -14 8 -25 -15 -13 -27 8
-8 16 -7 29 2 17 13 17 13 1 -5 -17 -18 -19 -18 -35 -3 -13 14 -14 20 -3 32
14 18 30 21 30 5z m1450 -5 c0 -20 -24 -44 -44 -44 -16 0 -23 40 -9 53 13 14
53 7 53 -9z m-5343 -15 c2 -17 -1 -18 -12 -9 -8 7 -12 16 -9 21 9 16 20 10 21
-12z m1816 -299 c-3 -11 -7 -20 -9 -20 -2 0 -4 9 -4 20 0 11 4 20 9 20 5 0 7
-9 4 -20z m82 -25 c0 -25 -3 -45 -7 -45 -5 0 -8 9 -8 21 0 11 -4 18 -9 14 -5
-3 -13 -1 -16 5 -4 6 -1 9 6 8 7 -2 15 6 17 16 3 14 0 17 -12 13 -8 -3 -18 -2
-21 3 -4 6 6 10 22 10 27 0 28 -2 28 -45z m170 36 c3 -5 2 -12 -3 -15 -5 -3
-9 1 -9 9 0 17 3 19 12 6z m45 -22 c0 -27 2 -30 15 -19 8 7 13 16 10 20 -3 5
0 12 6 16 8 5 10 2 5 -7 -4 -8 0 -5 8 5 15 19 16 17 16 -27 0 -49 -16 -65 -22
-22 l-3 25 -27 -25 -28 -26 0 46 c0 25 5 45 10 45 6 0 10 -14 10 -31z m125
-14 c0 -25 -4 -45 -8 -45 -5 0 -5 5 -2 10 3 6 3 10 -2 10 -4 0 -8 11 -8 25 0
14 4 25 8 25 5 0 5 5 2 10 -3 6 -3 10 2 10 4 0 8 -20 8 -45z m49 24 c-3 -5
-10 -7 -15 -3 -5 3 -7 10 -3 15 3 5 10 7 15 3 5 -3 7 -10 3 -15z m74 14 c-13
-3 -18 -16 -20 -46 l-1 -42 -4 42 c-3 29 -9 43 -21 46 -9 2 1 4 23 4 22 0 32
-2 23 -4z m59 -25 c-3 -7 -5 -2 -5 12 0 14 2 19 5 13 2 -7 2 -19 0 -25z m50 0
c-3 -7 -5 -2 -5 12 0 14 2 19 5 13 2 -7 2 -19 0 -25z m70 18 c-3 -7 -1 -18 5
-24 8 -8 6 -13 -8 -19 -10 -4 -24 -14 -31 -22 -6 -9 -15 -13 -19 -8 -4 4 -2 7
5 7 7 0 9 5 6 10 -3 6 -1 10 5 10 6 0 8 5 4 11 -4 8 1 9 17 5 23 -7 23 -6 5 8
-10 8 -15 19 -11 25 9 16 28 13 22 -3z m43 -31 c0 -36 -3 -45 -17 -44 -11 0
-13 3 -5 6 7 2 12 22 12 44 0 21 2 39 5 39 3 0 5 -20 5 -45z m60 5 c0 -22 -4
-40 -10 -40 -5 0 -10 18 -10 40 0 22 5 40 10 40 6 0 10 -18 10 -40z m37 -22
c-2 -13 -4 -3 -4 22 0 25 2 35 4 23 2 -13 2 -33 0 -45z m43 31 c0 -24 4 -30
16 -25 8 3 12 2 9 -4 -3 -6 -12 -10 -20 -10 -7 0 -16 -6 -18 -12 -3 -7 -6 8
-6 35 -1 26 4 47 9 47 6 0 10 -14 10 -31z m128 24 c-13 -3 -18 -16 -20 -46
l-1 -42 -4 42 c-3 29 -9 43 -21 46 -9 2 1 4 23 4 22 0 32 -2 23 -4z m61 0
c-31 -8 -31 -68 -1 -76 9 -3 5 -4 -10 -4 -26 1 -28 5 -28 42 0 37 2 41 28 42
15 0 20 -1 11 -4z m117 -41 l1 -42 -4 40 c-3 32 -8 40 -24 40 -16 0 -19 -8
-21 -42 -1 -39 -2 -40 -5 -10 -6 47 3 64 29 60 20 -3 23 -9 24 -46z m74 38 c0
-5 -6 -7 -14 -4 -8 3 -16 -3 -19 -15 -5 -21 10 -28 29 -13 5 4 1 0 -8 -10 -10
-9 -18 -21 -18 -27 0 -6 -4 -11 -10 -11 -5 0 -10 19 -10 43 0 38 3 43 25 45
14 1 25 -3 25 -8z m54 -11 c-3 -5 -10 -7 -15 -3 -5 3 -7 10 -3 15 3 5 10 7 15
3 5 -3 7 -10 3 -15z m51 -25 c0 -29 -10 -18 -19 19 -5 23 -4 26 6 16 7 -6 13
-22 13 -35z m63 39 c-10 -2 -18 -11 -18 -19 0 -8 8 -15 18 -15 16 -1 16 -2 0
-6 -10 -2 -18 -11 -18 -18 0 -7 8 -16 18 -18 13 -4 11 -5 -5 -6 -21 -1 -23 4
-23 44 0 40 2 45 23 44 16 -1 18 -2 5 -6z m56 -34 c-2 -4 3 -10 12 -13 8 -3
13 -10 10 -15 -4 -5 -1 -12 4 -14 6 -3 5 -4 -2 -2 -7 1 -12 8 -10 14 4 18 -16
12 -21 -6 -3 -10 -5 5 -5 32 0 35 2 44 7 30 5 -11 7 -23 5 -26z m66 37 c0 -2
-13 -6 -29 -8 -17 -2 -28 -1 -25 4 5 8 54 12 54 4z m40 0 c0 -2 -7 -6 -15 -10
-8 -3 -15 -1 -15 4 0 6 7 10 15 10 8 0 15 -2 15 -4z m30 -28 c0 -18 -5 -40
-10 -48 -7 -11 -10 -2 -10 33 0 26 5 47 10 47 6 0 10 -15 10 -32z m54 26 c-7
-3 -9 -18 -4 -44 4 -22 3 -40 -1 -40 -5 0 -9 11 -9 25 0 19 -4 23 -17 19 -15
-5 -16 -4 -3 5 8 6 16 15 16 21 3 18 4 20 17 19 8 0 8 -2 1 -5z m-1557 -28
c-16 -13 -16 -14 -1 -20 9 -4 15 -9 12 -11 -9 -9 -38 7 -38 20 0 11 13 19 40
24 3 0 -3 -6 -13 -13z m53 -11 c0 -8 -4 -17 -10 -20 -6 -4 -10 5 -10 20 0 15
4 24 10 20 6 -3 10 -12 10 -20z m762 -10 c2 -19 0 -35 -4 -35 -4 0 -8 16 -8
35 0 19 2 35 4 35 2 0 6 -16 8 -35z m-695 3 c-3 -8 -6 -5 -6 6 -1 11 2 17 5
13 3 -3 4 -12 1 -19z m840 6 c-3 -3 -12 -4 -19 -1 -8 3 -5 6 6 6 11 1 17 -2
13 -5z m-1104 -24 c3 -11 1 -20 -4 -20 -5 0 -9 9 -9 20 0 11 2 20 4 20 2 0 6
-9 9 -20z m604 -12 c-3 -7 -5 -2 -5 12 0 14 2 19 5 13 2 -7 2 -19 0 -25z m50
0 c-3 -7 -5 -2 -5 12 0 14 2 19 5 13 2 -7 2 -19 0 -25z m-612 1 c-4 -5 -12 -9
-18 -8 -9 0 -8 2 1 6 6 2 9 10 6 15 -4 7 -2 8 5 4 6 -4 9 -12 6 -17z m210 12
c3 -5 2 -12 -3 -15 -5 -3 -9 1 -9 9 0 17 3 19 12 6z m219 -12 c-3 -5 -10 -7
-15 -3 -5 3 -7 10 -3 15 3 5 10 7 15 3 5 -3 7 -10 3 -15z m870 0 c-3 -5 -10
-7 -15 -3 -5 3 -7 10 -3 15 3 5 10 7 15 3 5 -3 7 -10 3 -15z m403 15 c-3 -3
-12 -4 -19 -1 -8 3 -5 6 6 6 11 1 17 -2 13 -5z m-1199 -149 c-3 -3 -9 2 -12
12 -6 14 -5 15 5 6 7 -7 10 -15 7 -18z m19 -27 c-2 -13 -4 -5 -4 17 -1 22 1
32 4 23 2 -10 2 -28 0 -40z m50 0 c-2 -13 -4 -5 -4 17 -1 22 1 32 4 23 2 -10
2 -28 0 -40z m42 5 c0 -36 -3 -43 -9 -28 -12 28 -12 75 0 75 6 0 10 -21 9 -47z
m350 0 c0 -40 -2 -44 -10 -25 -8 21 -3 72 7 72 2 0 4 -21 3 -47z m88 -20 c-2
-16 -4 -5 -4 22 0 28 2 40 4 28 2 -13 2 -35 0 -50z m37 52 c3 -8 1 -15 -4 -15
-6 0 -10 7 -10 15 0 8 2 15 4 15 2 0 6 -7 10 -15z m-633 -27 c-3 -21 -6 -26
-9 -15 -3 17 3 47 11 47 2 0 1 -15 -2 -32z m201 17 c0 -5 -5 -10 -12 -11 -7
-2 -6 -1 1 3 8 4 7 8 -2 15 -11 8 -11 9 -1 6 8 -2 14 -8 14 -13z m168 -20 c0
-5 -5 -3 -10 5 -5 8 -10 20 -10 25 0 6 5 3 10 -5 5 -8 10 -19 10 -25z m188 17
c2 -7 -3 -12 -12 -12 -9 0 -16 7 -16 16 0 17 22 14 28 -4z m159 2 c-3 -3 -12
-4 -19 -1 -8 3 -5 6 6 6 11 1 17 -2 13 -5z m-310 -26 c-3 -8 -6 -5 -6 6 -1 11
2 17 5 13 3 -3 4 -12 1 -19z m30 0 c-3 -8 -6 -5 -6 6 -1 11 2 17 5 13 3 -3 4
-12 1 -19z m30 0 c-3 -8 -6 -5 -6 6 -1 11 2 17 5 13 3 -3 4 -12 1 -19z m-135
-10 c-7 -7 -12 -8 -12 -2 0 6 3 14 7 17 3 4 9 5 12 2 2 -3 -1 -11 -7 -17z
m205 -20 c-3 -7 -5 -2 -5 12 0 14 2 19 5 13 2 -7 2 -19 0 -25z m109 20 c4 -7
3 -8 -4 -4 -7 4 -12 0 -12 -10 0 -10 -3 -15 -6 -11 -7 6 2 37 10 37 3 0 8 -5
12 -12z m-665 -15 c13 -16 12 -17 -3 -4 -17 13 -22 21 -14 21 2 0 10 -8 17
-17z m-1986 -583 c16 -16 25 -33 21 -37 -4 -5 -17 4 -28 20 -34 47 -121 32
-128 -23 -5 -32 1 -51 20 -70 29 -29 74 -26 104 7 34 37 43 23 11 -16 -55 -65
-155 -25 -155 61 0 84 96 120 155 58z m165 20 c0 -5 -18 -10 -40 -10 l-40 0 0
-81 c0 -51 -4 -78 -10 -74 -5 3 -10 44 -10 91 l0 84 50 0 c28 0 50 -4 50 -10z
m140 0 c0 -5 -18 -10 -40 -10 l-40 0 0 -81 c0 -51 -4 -78 -10 -74 -11 7 -14
158 -3 168 10 11 93 8 93 -3z m135 1 c3 -6 -12 -11 -32 -13 -33 -3 -38 -7 -41
-30 -3 -21 3 -30 27 -43 34 -17 38 -27 17 -44 -9 -8 -21 -8 -40 -1 -36 13 -33
24 7 16 l32 -6 -32 26 c-36 28 -42 58 -16 86 17 19 68 25 78 9z m75 -82 c0
-57 -4 -88 -10 -84 -5 3 -10 44 -10 91 0 49 4 84 10 84 6 0 10 -37 10 -91z
m27 -46 c-2 -27 -3 -5 -3 47 0 52 1 74 3 48 2 -27 2 -69 0 -95z m174 108 c20
-20 29 -39 29 -61 0 -40 -47 -90 -84 -90 -14 0 -26 5 -26 10 0 6 10 10 22 10
30 0 68 38 68 69 0 36 -37 71 -76 71 l-33 0 -4 -82 -3 -83 -2 93 -2 92 41 0
c31 0 47 -6 70 -29z m169 19 c0 -5 -18 -10 -40 -10 l-40 0 0 -70 0 -70 40 0
c22 0 40 -5 40 -11 0 -6 -19 -9 -47 -7 l-48 3 -3 74 c-2 41 -1 80 2 88 6 15
96 19 96 3z m138 -2 c17 -17 15 -69 -4 -96 -14 -21 -14 -22 6 -22 12 0 18 -4
15 -10 -8 -12 -52 -13 -59 -1 -3 4 6 23 19 41 14 19 25 39 25 46 0 20 -31 38
-61 36 -16 -1 -29 2 -29 8 0 14 73 13 88 -2z m102 2 c0 -6 -7 -27 -15 -47 -20
-48 -19 -53 10 -53 22 0 25 -4 24 -37 -1 -33 -2 -34 -8 -13 -5 19 -14 26 -39
28 -36 4 -36 14 -6 74 8 15 14 34 14 43 0 8 5 15 10 15 6 0 10 -5 10 -10z m40
5 c0 -4 -7 -19 -15 -35 -8 -16 -12 -36 -9 -44 4 -11 1 -16 -10 -16 -21 0 -20
20 1 65 14 30 33 47 33 30z m157 -132 c-2 -27 -3 -5 -3 47 0 52 1 74 3 48 2
-27 2 -69 0 -95z m68 86 c10 -31 24 -22 28 19 2 25 4 16 5 -25 1 -35 0 -63 -2
-63 -7 0 -76 105 -76 115 0 14 39 -26 45 -46z m75 -39 c0 -43 -4 -82 -10 -85
-6 -4 -10 27 -10 85 0 58 4 89 10 85 6 -3 10 -42 10 -85z m140 80 c0 -5 -15
-10 -34 -10 -39 0 -42 -6 -42 -80 l1 -55 38 -3 c52 -4 46 -22 -8 -22 l-45 0 0
90 0 90 45 0 c25 0 45 -4 45 -10z m160 0 c0 -6 -27 -10 -60 -10 -33 0 -60 4
-60 10 0 6 27 10 60 10 33 0 60 -4 60 -10z m1270 -75 c0 -50 -4 -85 -10 -85
-6 0 -10 35 -10 85 0 50 4 85 10 85 6 0 10 -35 10 -85z m30 -6 c0 -57 -4 -88
-10 -84 -11 7 -14 158 -3 168 12 13 13 7 13 -84z m160 87 c0 -2 -11 -29 -25
-60 -14 -31 -25 -59 -25 -61 0 -3 12 -5 27 -5 20 0 24 -3 16 -11 -14 -14 -63
-3 -63 14 0 6 9 32 20 56 11 24 20 45 20 47 0 2 -18 4 -40 4 -22 0 -40 5 -40
10 0 6 25 10 55 10 30 0 55 -2 55 -4z m153 -13 c21 -25 21 -122 0 -145 -17
-19 -73 -25 -73 -9 0 6 15 11 33 13 l32 3 0 65 0 65 -42 3 -42 3 -4 -83 -3
-83 -2 93 -2 92 43 0 c29 0 49 -6 60 -17z m157 7 c0 -5 -18 -10 -40 -10 l-40
0 0 -70 0 -70 40 0 c22 0 40 -5 40 -11 0 -6 -19 -9 -47 -7 l-48 3 -3 74 c-2
41 -1 80 2 88 6 15 96 19 96 3z m160 -10 c25 -25 25 -48 0 -75 l-20 -22 20
-26 c11 -14 16 -28 12 -31 -5 -3 -21 11 -36 32 l-26 37 25 13 c47 24 26 72
-32 72 l-33 0 0 -74 c0 -41 -4 -78 -10 -81 -6 -4 -10 27 -10 84 l0 91 45 0
c32 0 51 -6 65 -20z m70 -70 c0 -53 -4 -90 -10 -90 -6 0 -10 37 -10 90 0 53 4
90 10 90 6 0 10 -37 10 -90z m27 -47 c-2 -27 -3 -5 -3 47 0 52 1 74 3 48 2
-27 2 -69 0 -95z m218 127 c4 -6 -8 -10 -28 -10 -55 0 -63 -55 -12 -78 28 -13
33 -37 9 -46 -15 -6 -54 9 -54 20 0 4 11 3 25 0 14 -4 25 -2 25 3 0 5 -9 11
-20 14 -11 3 -25 17 -31 31 -17 36 10 76 51 76 16 0 32 -4 35 -10z m72 -127
c-2 -27 -3 -5 -3 47 0 52 1 74 3 48 2 -27 2 -69 0 -95z m43 47 c0 -43 -4 -82
-10 -85 -6 -4 -10 27 -10 85 0 58 4 89 10 85 6 -3 10 -42 10 -85z m160 80 c0
-6 -28 -10 -65 -10 -37 0 -65 4 -65 10 0 6 28 10 65 10 37 0 65 -4 65 -10z
m140 0 c0 -5 -18 -10 -40 -10 l-40 0 0 -70 0 -70 40 0 c22 0 40 -4 40 -10 0
-5 -22 -10 -50 -10 l-50 0 0 90 0 90 50 0 c28 0 50 -4 50 -10z m-4458 -32 c30
-24 31 -56 4 -83 -30 -30 -47 -31 -71 -5 -20 22 -14 26 16 10 27 -15 61 5 57
32 -5 31 -33 46 -59 30 -27 -17 -38 -6 -13 13 24 18 45 19 66 3z m198 2 c0 -5
-12 -10 -27 -11 -27 0 -27 -1 -5 -9 29 -12 28 -20 -3 -20 -20 0 -25 5 -25 25
0 21 5 25 30 25 17 0 30 -4 30 -10z m140 0 c0 -5 -10 -10 -22 -10 -21 0 -21 0
-2 -15 18 -14 18 -14 -8 -15 -23 0 -28 4 -28 25 0 21 5 25 30 25 17 0 30 -4
30 -10z m114 4 c24 -9 19 -23 -6 -17 -23 4 -23 4 -3 -11 40 -31 45 -37 45 -58
0 -44 -47 -70 -94 -52 -24 9 -19 26 5 19 11 -4 31 -4 45 -1 32 8 33 50 2 67
-31 16 -39 31 -26 46 12 15 11 15 32 7z m264 -10 c31 -22 27 -74 -7 -91 -14
-6 -29 -9 -35 -6 -5 4 2 11 16 15 31 11 42 32 28 59 -17 30 -40 24 -40 -11 0
-16 -4 -30 -10 -30 -11 0 -14 63 -3 73 10 11 27 8 51 -9z m202 6 c0 -5 -12
-10 -27 -11 -27 0 -27 -1 -5 -9 29 -12 28 -20 -3 -20 -20 0 -25 5 -25 25 0 21
5 25 30 25 17 0 30 -4 30 -10z m116 -5 c4 -8 -8 -37 -25 -63 l-31 -47 43 -3
c72 -5 67 -22 -6 -22 -37 0 -67 3 -67 6 0 4 16 31 35 60 40 60 42 66 18 63
-31 -3 -39 1 -23 11 22 14 50 12 56 -5z m604 5 c0 -5 -10 -11 -22 -11 -17 -1
-19 -2 -5 -6 26 -7 21 -23 -8 -23 -20 0 -25 5 -25 25 0 21 5 25 30 25 17 0 30
-4 30 -10z m90 -66 c0 -47 -4 -73 -10 -69 -5 3 -10 33 -10 66 0 46 -3 59 -15
59 -8 0 -15 5 -15 10 0 6 11 10 25 10 24 0 25 -2 25 -76z m70 66 c0 -5 -7 -10
-15 -10 -12 0 -15 -14 -15 -65 0 -37 -4 -65 -10 -65 -11 0 -14 133 -3 143 10
11 43 8 43 -3z m1402 -15 c-2 -11 -12 -38 -22 -60 l-18 -40 49 -3 c70 -4 61
-22 -11 -22 -68 0 -70 3 -40 69 24 52 25 61 5 61 -8 0 -15 5 -15 11 0 6 12 9
28 7 21 -2 26 -8 24 -23z m187 16 c17 -11 7 -41 -14 -41 -18 0 -20 16 -2 23 6
3 2 6 -10 6 -13 1 -23 6 -23 11 0 12 30 13 49 1z m181 -1 c0 -5 -10 -10 -22
-10 -21 0 -21 0 -2 -15 18 -14 18 -14 -8 -15 -23 0 -28 4 -28 25 0 21 5 25 30
25 17 0 30 -4 30 -10z m129 1 c18 -11 7 -41 -15 -41 -13 0 -14 3 -4 15 10 13
9 15 -9 15 -12 0 -19 5 -16 10 8 12 25 13 44 1z m335 3 c23 -9 10 -23 -17 -17
-19 4 -19 2 5 -11 31 -18 42 -47 34 -82 -7 -27 -42 -40 -81 -30 -40 10 -29 25
14 19 33 -5 41 -2 51 18 11 20 10 25 -11 41 -50 38 -51 39 -38 54 13 16 20 17
43 8z m214 -72 c2 -50 -1 -72 -8 -67 -5 3 -10 33 -10 66 0 53 -2 59 -21 59
-12 0 -17 4 -14 11 4 5 17 9 28 7 20 -3 22 -10 25 -76z m72 68 c0 -5 -9 -10
-20 -10 -18 0 -20 -7 -20 -65 0 -37 -4 -65 -10 -65 -11 0 -14 133 -3 143 10
11 53 8 53 -3z m135 0 c4 -6 -6 -11 -22 -11 -17 -1 -21 -3 -10 -6 26 -7 21
-23 -8 -23 -18 0 -25 5 -25 18 0 10 3 22 7 25 10 11 51 8 58 -3z m-3225 -52
c0 -4 -7 -8 -15 -8 -10 0 -15 10 -15 28 1 26 1 26 15 8 8 -11 15 -23 15 -28z
m203 -23 c20 -30 33 -56 28 -59 -5 -4 -20 11 -33 31 l-23 38 -3 -37 c-5 -61
-22 -44 -22 22 0 33 3 60 8 60 4 -1 24 -25 45 -55z m-1258 6 c-12 -5 -22 -21
-26 -42 -6 -34 -6 -33 -8 9 -1 40 1 42 27 41 23 0 24 -1 7 -8z m140 0 c-12 -5
-22 -21 -26 -42 -6 -34 -6 -33 -8 9 -1 40 1 42 27 41 23 0 24 -1 7 -8z m575
-3 l-25 -11 30 -6 c25 -6 27 -8 10 -12 -29 -8 -45 0 -45 22 0 14 7 19 28 18
l27 0 -25 -11z m728 5 c-25 -6 -22 -23 4 -23 14 0 19 -3 12 -10 -15 -15 -54 0
-54 21 0 14 7 19 28 18 16 -1 20 -3 10 -6z m1777 -13 c0 -8 -9 -16 -20 -19
-16 -3 -17 -1 -7 12 11 13 10 16 -10 20 -16 4 -14 5 7 4 19 -1 30 -7 30 -17z
m153 13 c-26 -6 -22 -23 5 -23 16 0 18 -3 8 -9 -20 -13 -51 -1 -51 20 0 14 7
19 28 18 16 -1 20 -3 10 -6z m880 0 c-27 -7 -21 -23 8 -23 14 0 23 -4 19 -9
-3 -6 -18 -9 -33 -8 -20 2 -28 8 -30 25 -3 18 1 22 25 21 17 -1 21 -3 11 -6z
m-3204 -30 c-11 -45 -24 -51 -24 -10 0 26 4 37 15 37 12 0 14 -7 9 -27z m2460
5 c21 -30 22 -61 1 -34 -14 18 -15 18 -15 2 0 -9 -4 -14 -10 -11 -13 8 -13 65
-1 65 6 0 17 -10 25 -22z m-2376 -21 c4 -20 -25 -34 -40 -19 -15 15 -1 44 19
40 10 -2 19 -11 21 -21z m2610 0 c4 -20 -25 -34 -40 -19 -15 15 -1 44 19 40
10 -2 19 -11 21 -21z m-2858 -547 c0 -6 -27 -10 -60 -10 -33 0 -60 4 -60 10 0
6 27 10 60 10 33 0 60 -4 60 -10z m140 0 c0 -5 -18 -10 -40 -10 l-40 0 0 -70
0 -70 40 0 c22 0 40 -4 40 -10 0 -5 -22 -10 -50 -10 l-50 0 0 90 0 90 50 0
c28 0 50 -4 50 -10z m57 -127 c-2 -27 -3 -5 -3 47 0 52 1 74 3 48 2 -27 2 -69
0 -95z m73 75 c0 -5 4 -8 9 -8 6 0 12 17 14 38 2 25 4 16 5 -25 1 -35 0 -63
-3 -63 -2 0 -20 21 -40 46 -40 54 -50 97 -10 49 13 -16 24 -33 25 -37z m60
-29 c0 -57 -4 -88 -10 -84 -11 7 -14 158 -3 168 12 13 13 7 13 -84z m70 1 c0
-53 -4 -90 -10 -90 -11 0 -14 162 -3 173 12 13 13 7 13 -83z m65 35 c13 -19
14 -18 14 12 1 17 6 35 11 38 6 4 10 -17 10 -55 0 -41 -4 -59 -11 -55 -19 12
-69 88 -69 104 1 17 6 11 45 -44z m65 -35 c0 -53 -4 -90 -10 -90 -11 0 -14
162 -3 173 12 13 13 7 13 -83z m70 0 c0 -53 -4 -90 -10 -90 -6 0 -10 37 -10
90 0 53 4 90 10 90 6 0 10 -37 10 -90z m30 -1 c0 -57 -4 -88 -10 -84 -11 7
-14 158 -3 168 12 13 13 7 13 -84z m134 85 c29 -11 16 -23 -19 -17 -30 5 -35
3 -41 -21 -7 -28 9 -56 32 -56 20 0 27 -19 14 -35 -16 -19 -31 -19 -56 0 -18
15 -17 16 16 10 33 -6 34 -5 15 9 -40 30 -45 37 -45 58 0 42 42 68 84 52z
m248 -11 c13 -12 18 -31 18 -71 0 -65 -18 -92 -62 -92 -39 0 -35 18 5 22 l32
3 0 65 0 65 -37 3 -38 3 0 -75 c0 -41 -4 -78 -10 -81 -6 -4 -10 27 -10 84 l0
91 42 0 c24 0 49 -7 60 -17z m181 -15 l21 -28 -23 -30 c-20 -28 -21 -32 -6
-52 16 -24 19 -38 8 -38 -15 0 -56 74 -44 78 15 5 41 31 41 42 0 19 -34 40
-65 40 l-34 0 -4 -82 -3 -83 -2 93 -2 93 46 -3 c38 -2 51 -9 67 -30z m146 -53
c19 -47 32 -88 28 -91 -4 -4 -11 4 -16 17 -5 13 -19 47 -31 74 -19 43 -23 47
-31 30 -4 -11 -18 -44 -30 -72 -12 -29 -25 -51 -29 -48 -8 5 60 175 70 175 3
0 21 -38 39 -85z m181 75 c0 -6 -27 -10 -60 -10 -33 0 -60 4 -60 10 0 6 27 10
60 10 33 0 60 -4 60 -10z m139 -70 c36 -88 38 -136 2 -56 -12 28 -24 60 -27
73 -4 13 -9 23 -13 23 -3 0 -17 -28 -30 -62 -40 -102 -57 -108 -22 -7 24 69
42 109 51 109 3 0 21 -36 39 -80z m191 70 c0 -5 -15 -10 -33 -10 -20 0 -42 -8
-55 -20 -47 -44 -13 -120 53 -120 19 0 35 -4 35 -10 0 -5 -16 -10 -36 -10 -47
0 -94 45 -94 90 0 45 47 90 94 90 20 0 36 -4 36 -10z m140 -80 c0 -43 -4 -82
-10 -85 -6 -4 -10 27 -10 85 0 58 4 89 10 85 6 -3 10 -42 10 -85z m48 46 l22
-29 0 31 c0 17 5 34 10 37 6 4 10 -17 10 -54 0 -34 -2 -61 -4 -61 -9 0 -76 98
-76 111 0 14 4 10 38 -35z m79 -54 c0 -40 -4 -75 -8 -78 -5 -3 -9 37 -9 88 0
57 4 87 9 78 5 -8 9 -48 8 -88z m143 88 c0 -5 -18 -10 -40 -10 l-40 0 0 -70 0
-70 40 0 c22 0 40 -5 40 -11 0 -6 -19 -9 -47 -7 l-48 3 -3 74 c-2 41 -1 80 2
88 6 15 96 19 96 3z m160 0 c0 -6 -27 -10 -60 -10 -33 0 -60 4 -60 10 0 6 27
10 60 10 33 0 60 -4 60 -10z m-580 -30 c11 -7 7 -10 -17 -10 -35 0 -58 -26
-47 -54 7 -19 35 -29 58 -20 9 3 16 1 16 -5 0 -6 -11 -13 -25 -17 -61 -15 -93
86 -35 109 23 8 33 8 50 -3z m-1912 -72 l-1 -73 -6 64 c-5 52 -10 66 -26 72
-17 7 -16 8 8 8 l27 1 -2 -72z m55 65 c-20 -4 -22 -12 -26 -71 l-3 -67 -2 73
-2 72 28 -1 c22 -1 23 -2 5 -6z m132 -2 l-30 -7 25 -8 c21 -7 22 -9 7 -13 -25
-7 -47 3 -47 22 0 11 10 15 38 14 36 -1 36 -2 7 -8z m655 0 c0 -5 -10 -7 -22
-4 -20 4 -18 1 10 -22 56 -46 34 -109 -36 -103 -52 4 -52 25 0 24 39 -1 43 1
46 26 3 21 -3 30 -27 43 -40 20 -41 45 -1 45 17 0 30 -4 30 -9z m230 -11 c0
-14 -7 -20 -21 -20 -17 0 -19 3 -10 14 10 12 8 15 -11 19 -17 3 -15 5 10 6 26
1 32 -3 32 -19z m165 0 c0 -8 -9 -16 -20 -19 -16 -3 -17 -1 -7 12 11 13 10 16
-10 20 -16 4 -14 5 7 4 19 -1 30 -7 30 -17z m285 -50 c0 -40 -4 -70 -10 -70
-6 0 -10 28 -10 64 0 53 -3 65 -17 69 -11 3 -7 5 10 6 27 1 27 1 27 -69z m55
61 c-16 -6 -21 -20 -26 -72 l-6 -64 -1 73 -2 72 28 -1 c23 0 24 -1 7 -8z m730
-1 c-16 -4 -22 -8 -13 -9 28 -2 31 -21 4 -21 -19 0 -26 5 -26 20 0 16 6 20 33
19 l32 -1 -30 -8z m113 -62 l-2 -73 -3 67 c-4 59 -6 67 -26 71 -18 4 -17 5 6
6 l27 1 -2 -72z m57 63 c-16 -6 -21 -20 -26 -72 l-6 -64 -1 73 -2 72 28 -1
c23 0 24 -1 7 -8z m-2140 -61 c20 -27 35 -55 33 -61 -2 -6 -15 5 -28 25 -14
20 -28 36 -32 36 -4 0 -9 -17 -11 -37 -2 -26 -4 -17 -5 25 -1 34 0 62 2 62 2
0 21 -22 41 -50z m204 -7 c18 -24 31 -48 29 -54 -2 -6 -17 6 -33 27 l-30 39
-6 -40 c-5 -34 -6 -31 -8 25 0 35 3 60 7 55 5 -6 23 -29 41 -52z m1597 -26
c23 -42 10 -44 -16 -3 -28 46 -38 45 -43 -1 -2 -24 -4 -13 -5 27 l-1 65 25
-30 c14 -16 32 -43 40 -58z m-752 37 c9 -23 8 -24 -13 -24 -14 0 -18 5 -14 20
6 24 19 26 27 4z m320 0 c9 -23 8 -24 -13 -24 -14 0 -18 5 -14 20 6 24 19 26
27 4z m-1504 1 c0 -3 -10 -10 -22 -15 -22 -8 -22 -9 5 -9 37 -1 35 -21 -2 -21
-33 0 -46 13 -37 35 5 14 56 22 56 10z m868 -16 c2 -9 -5 -19 -14 -23 -22 -8
-33 2 -14 14 13 8 12 10 -2 10 -9 0 -20 5 -23 11 -5 7 3 9 21 7 17 -2 30 -10
32 -19z m1252 16 c0 -3 -10 -10 -22 -15 -21 -8 -20 -9 10 -9 41 -1 33 -21 -9
-21 -24 0 -29 4 -29 25 0 20 5 25 25 25 14 0 25 -2 25 -5z m-1105 -35 c19 -37
19 -46 0 -30 -10 9 -15 9 -15 1 0 -6 -4 -11 -10 -11 -5 0 -10 16 -10 35 0 43
14 45 35 5z m-280 -15 c0 -30 -39 -27 -43 3 -3 20 0 23 20 20 15 -2 23 -10 23
-23z m1063 2 c4 -20 -25 -34 -40 -19 -15 15 -1 44 19 40 10 -2 19 -11 21 -21z
m-598 -2 c18 -21 6 -29 -19 -13 -18 11 -23 11 -31 -2 -5 -8 -12 -11 -16 -7
-10 10 16 37 36 37 10 0 23 -7 30 -15z m319 2 c15 -19 3 -28 -19 -15 -14 9
-22 9 -34 -1 -13 -11 -16 -11 -16 2 0 26 50 36 69 14z"/>
<path d="M830 3730 c0 -11 7 -20 15 -20 8 0 15 9 15 20 0 11 -7 20 -15 20 -8
0 -15 -9 -15 -20z"/>
<path d="M5820 3725 c0 -8 5 -15 10 -15 6 0 10 7 10 15 0 8 -4 15 -10 15 -5 0
-10 -7 -10 -15z"/>
<path d="M2695 1790 c-3 -5 -1 -10 4 -10 6 0 11 5 11 10 0 6 -2 10 -4 10 -3 0
-8 -4 -11 -10z"/>
<path d="M3760 1790 c0 -5 5 -10 11 -10 5 0 7 5 4 10 -3 6 -8 10 -11 10 -2 0
-4 -4 -4 -10z"/>
</g>
</svg>
